<svg viewBox="0 0 661 661"
    fill="none"
    xmlns="http://www.w3.org/2000/svg">
    <symbol id="bg-vector">

        <path
            d="M602.731 144.381C543.272 57.6358 443.453 0.729492 330.344 0.729492C148.09 0.729492 0.343506 148.475 0.343506 330.729C0.343506 357.245 3.4708 383.029 9.37638 407.735L177.425 239.686C193.535 223.577 219.652 223.577 235.762 239.686L371.594 375.518L602.731 144.381Z"
            fill="var(--text-color-secondary)" />
        <path
            d="M641.953 221.831L400.762 463.023C384.652 479.132 358.535 479.132 342.425 463.023L206.594 327.191L42.1575 491.627C98.6092 592.522 206.511 660.729 330.344 660.729C512.598 660.729 660.344 512.984 660.344 330.729C660.344 292.571 653.867 255.925 641.953 221.831Z"
            fill="var(--text-color-secondary)" />
    </symbol>
</svg>